<svg xmlns="http://www.w3.org/2000/svg" id="Layer_1" x="0" y="0" version="1.1" viewBox="0 0 64.4 51.4" xml:space="preserve">
  <path fill="#666666" d="M168.7 41.3c-.1 0-.1 0 0 0 0-.2.3-1.1-.7-.8 0 0-.4.1-1.1.3-.1 0-.2.1-.3.2-.1.1-.2.1-.3 0-.2-.4-.6-.1-.7 0-.1.1-.1.1-.2.1-1.9.3-4.5.6-5.9 0 0 0-.1 0-.1-.1-.2-.1-.3-.3-.5-.4-.5-.5-.2-.9.1-1.1.1-.1.2-.2.4-.3.7-.4 1.9-.7 4-1h.1c.6-.3 5.2-3.1 2.5-10.1-.1-.2-.2-.3-.4-.3-.3 0-.8.1-1.3.2-.4.1-.6-.4-.4-.7.2-.3.5-.6.7-.9.3-.4-.2-.9-.6-.5-.8.7-1.9 1.5-2.9 2.2-.4.2-.8-.2-.6-.5.1-.1.2-.3.3-.4.8-1 2.4-3.5 1.3-4.9-.3-.4-.6-.3-.7.1-.4 1.2-1.2 3.9-2.4 5.4-.3.4-.8.1-.7-.4 0-.1.1-.3.2-.4 0 0 1.7-3.6 0-5.6-.2-.3-.7-.1-.7.3 0 1.3-.1 3.6-.6 5.3-.2.5-.8.3-.8-.2.1-2 0-5.2-1.8-7.1-.3-.3-.8 0-.7.4.5 1.8 1.2 5.2.6 8.9 0 .1-.1.2-.2.3l-.4.2s.4-6.3-3.5-7.8c-.4-.2-.7.3-.5.7 1 1.3 2.4 3.9 2.1 8.4 0 .1-.1.2-.1.3-.2.2-.9.7-1.6 1.4l-4 2.9s-.1.1-.2.1c-.5.1-3.3.8-6 1.5-5.7-.5-7.1 1.9-7.1 1.9-1.6.7-2.7 2-.8 4.5 0 0-.2-1.1.6-1.7 0 .2.1.3.2.5.2.3.7.3.8 0 .3-.8 1.3-.5 1.5-.4h.1c.4.1.9.1 1.2.1.4 0 .6 0 .8-.1.1 0 .2 0 .3-.1.1-.1.2-.1.3-.2.1-.1.4-.2.5-.1.2.1.3.2.4.4.1.2.1.4 0 .5-.8.9-3.8 4-6.2 6.6-1.5 1.6-2.8 3-3.4 3.9-.1.1-.1.2-.2.2 0 0-.7 1.6-2 3.2-2.3 2.8-6.3 5.8-11.6 1.2-.2-.2-.6-.1-.7.2-.1.3 0 .7.5 1.2.2.2.1.6-.2.7-.3.1-.4.6-.1.8 2.1 1.1 7.7 3.7 10.6-.3.1-.1.2-.2.3-.2.4-.1 1.3 0 0 1.5-.3.3 0 .8.4.7.7-.2 1.5-.5 2-1.3.2-.3.7-.2.8.1.2.7.2 1.6-.3 2.3-.1.2.4.1.2.3-1.7 1.1 21.2-10.1 24.3-14.5 0-.1.1-.1.1-.2 0-.4.1-1.9.5-2.5l.3.3v.1h.1c.6.7 2 1.9 3.4 1.8.3 0 .5-.1.8-.2.7-.1 1.6-.2 1.8 0 .4.2 1-.8 2.5-.5 1.7.3 2.4.3 3.5-.5 1-.8 2.4-.8 2.9-1.8s-1.4-1.1.3-1.4c.5-.1 0-.2 0-.2s.5-.2.1-.8c-.7-.9.8-.9-.9-1.7z"/>
  <path fill="#666666" d="M61.5 24.3H26.2v-3h35.3v-3H26.2v-3h35.3v-3H26.2v-3h35.3v-3H1.9v21h59.7v-3zM22.1 9.4l.3.8h.8l-.7.5.3.8-.7-.5-.7.5.3-.8-.7-.5h.8l.3-.8zm.7 6.2l-.7-.5-.7.5.3-.8-.7-.4h.8l.3-.8.3.8h.8l-.7.5.3.7zm0 4.2l-.7-.5-.7.5.3-.8-.7-.5h.8l.3-.8.3.8h.8l-.7.5.3.8zm-2 2.1l-.7-.5-.7.5.3-.8-.7-.5h.8l.3-.8.3.8h.8l-.7.5.3.8zm-2.1-2.1l-.7-.5-.7.5.3-.8-.6-.5h.8l.3-.8.3.8h.8l-.7.5.2.8zm-2 2.1l-.7-.5-.7.5.3-.8-.6-.5h.8l.3-.8.3.8h.8l-.7.5.2.8zm-2-2.1l-.7-.5-.7.5.3-.8-.6-.5h.8l.3-.8.3.8h.8l-.7.5.2.8zm-2 2.1l-.7-.5-.7.5.3-.8-.6-.5h.8l.3-.8.3.8h.8l-.7.5.2.8zm-2-2.1l-.7-.5-.7.5.3-.8-.6-.5h.8l.3-.8.3.8h.8l-.7.5.2.8zm-2 2.1l-.7-.5-.7.5.3-.8-.6-.5h.8l.3-.8.3.8h.8l-.7.5.2.8zm-2-2.1l-.7-.5-.7.5.3-.8-.6-.5h.8l.2-.8.3.8h.8l-.6.5.2.8zM5 14.4h.8l.2-.8.3.8h.8l-.7.5.3.8-.7-.6-.7.5.3-.8-.6-.4zm15.8-.9l-.7-.5-.7.5.3-.8-.7-.4h.8l.3-.8.3.8h.8l-.7.5.3.7zm0 4.2l-.7-.5-.7.5.3-.8-.7-.5h.8l.3-.8.3.8h.8l-.7.5.3.8zm-1.6-3.3l-.7.5.3.8-.7-.5-.7.5.3-.8-.7-.5h.8l.3-.8.3.8h.8zm-2.5 3.3l-.7-.5-.7.5.3-.8-.6-.5h.8l.3-.8.3.8h.8l-.7.5.2.8zm-.2-4.9l.3.8-.7-.5-.7.5.3-.8-.7-.5h.8l.3-.8.3.8h.8l-.7.5zm-1.3 1.6l-.7.5.3.8-.7-.5-.7.5.3-.8-.7-.5h.8l.3-.8.3.8h.8zm-2.5 3.3l-.7-.5-.7.5.3-.8-.6-.5h.8l.3-.8.3.8h.8l-.7.5.2.8zm-.2-4.9l.3.8-.7-.5-.7.5.3-.8-.7-.5h.8l.3-.8.3.8h.8l-.7.5zm-1.4 1.6l-.7.5.3.8-.7-.5-.7.5.3-.8-.6-.5h.8l.3-.8.3.8h.7zm-2.4 3.3l-.7-.5-.7.5.3-.8-.6-.5h.8l.3-.8.3.8h.8l-.7.5.2.8zm-.2-4.9l.3.8-.7-.5-.7.5.3-.8-.7-.5h.8l.3-.8.3.8h.8l-.7.5zm11.3-4.7l.3-.8.3.8h.8l-.7.5.3.8-.7-.5-.7.5.3-.8-.7-.5h.8zm-1.7 1.3l.3.8h.8l-.7.5.3.8-.7-.5-.7.5.3-.8-.7-.5h.8l.3-.8zm-2.3-1.3l.3-.8.3.8h.8l-.7.5.3.8-.7-.5-.7.5.3-.8-.7-.5h.8zm-1.7 1.3l.3.8h.8l-.7.5.3.8-.7-.5-.7.5.3-.8-.7-.5h.8l.3-.8zm-2.3-1.3l.3-.8.3.8h.8l-.7.5.3.8-.7-.5-.7.5.3-.8-.7-.5h.8zm-1.7 1.3l.3.8h.8l-.7.5.3.8-.7-.5-.7.5.3-.8-.7-.5h.8l.3-.8zM7.8 8.1l.3-.8.3.8h.8l-.7.5.3.8-.7-.5-.7.5.3-.8-.7-.5h.8zM6 9.4l.3.8h.8l-.7.5.3.8L6 11l-.7.5.3-.8-.6-.5h.8l.2-.8zM3.8 8.1l.2-.8.3.8h.8l-.6.5.3.8-.8-.5-.6.5.3-.8-.7-.5h.8zm0 4.2l.2-.8.3.8h.8l-.7.5.3.8-.7-.5-.7.5.3-.8-.6-.5h.8zm0 4.1l.2-.8.3.8h.8l-.7.5.3.8-.7-.5-.7.5.3-.8-.6-.5h.8zm0 4.2l.2-.8.3.8h.8l-.7.5.3.8-.7-.5-.7.5.3-.8-.6-.5h.8zm.9 5.8L4 26l-.7.5.3-.8-.6-.5h.8l.2-.8.3.8h.8l-.7.5.3.7zM6 23.8l-.7.5.3-.8-.6-.4h.8l.2-.8.3.8h.8l-.7.5.3.8-.7-.6zm2.7 2.6l-.6-.4-.7.5.3-.8-.7-.5h.8l.3-.8.3.8h.8l-.7.5.2.7zm1.4-2.6l-.7.5.3-.8-.7-.4h.8l.3-.8.3.8h.8l-.7.5.3.8-.7-.6zm2.6 2.6l-.6-.4-.7.5.3-.8-.7-.5h.8l.3-.8.3.8h.8l-.7.5.2.7zm1.4-2.6l-.7.5.3-.8-.7-.4h.8l.3-.8.3.8h.8l-.7.5.3.8-.7-.6zm2.6 2.6l-.6-.4-.7.5.3-.8-.7-.5h.8l.3-.8.3.8h.8l-.7.5.2.7zm1.4-2.6l-.7.5.3-.8-.7-.4h.8l.3-.8.3.8h.8l-.7.5.3.8-.7-.6zm2.7 2.6l-.7-.4-.7.5.3-.8-.7-.5h.8l.3-.8.3.8h.8l-.7.5.3.7zm1.3-2.6l-.7.5.3-.8-.7-.4h.8l.3-.8.3.8h.8l-.7.5.3.8-.7-.6zm2.7 2.6l-.7-.4-.7.5.3-.8-.7-.5h.8l.3-.8.3.8h.8l-.7.5.3.7zm-.3-5.3l.3.8-.7-.5-.7.5.3-.8-.7-.5h.8l.3-.8.3.8h.8l-.7.5zm0-4.2l.3.8-.7-.5-.7.5.3-.8-.7-.5h.8l.3-.8.3.8h.8l-.7.5zm0-4.1l.3.8-.7-.5-.7.5.3-.8-.7-.5h.8l.3-.8.3.8h.8l-.7.5zm0-4.2l.3.8-.7-.5-.7.5.3-.8-.7-.5h.8l.3-.8.3.8h.8l-.7.5zM1.9 30.4h59.7v3H1.9zM1.9 36.4h59.7v3H1.9zM1.9 42.4h59.7v3H1.9z" class="st1"/>
</svg>
